# Blender v3.0.1 OBJ File: ''
# www.blender.org
v 0.000000 0.229026 -0.347441
v -0.781832 0.153724 -0.347441
v -0.974928 -0.015478 -0.347441
v -0.433884 -0.151168 -0.347441
v 0.433884 -0.151168 -0.347441
v 0.974928 -0.015478 -0.347441
v 0.781832 0.153724 -0.347441
v -0.974928 -0.015478 0.152559
v -0.433884 -0.151168 0.652559
v 0.433884 -0.151168 0.652559
v 0.974928 -0.015478 0.152559
v 0.000000 0.229026 0.152559
vt 0.000000 0.000000
vt 0.000000 0.000000
vt 0.000000 0.000000
vt 0.000000 0.000000
vt 0.000000 0.000000
vt 0.000000 0.000000
vt 0.000000 0.000000
vt 0.000000 0.000000
vt 0.000000 0.000000
vt 0.000000 0.000000
vt 0.000000 0.000000
vt 0.000000 0.000000
vn -0.0000 0.0000 1.0000
vn -0.2433 0.9700 0.0000
vn 0.0000 1.0000 0.0000
vn 0.2433 0.9700 0.0000
vn 0.6590 -0.7521 0.0000
vn -0.6590 -0.7521 0.0000
vn 0.0434 -0.9513 -0.3052
vn -0.0434 -0.9513 -0.3052
vn 0.0000 -0.7960 -0.6053
vn -0.3249 -0.8672 -0.3774
vn 0.3249 -0.8672 -0.3774
vn 0.0959 -0.9954 0.0000
vn -0.0959 -0.9954 0.0000
s off
f 5/1/1 6/2/1 7/3/1
f 5/1/2 11/4/2 6/2/2
f 4/5/3 10/6/3 5/1/3
f 4/5/4 8/7/4 9/8/4
f 2/9/5 8/7/5 3/10/5
f 6/2/6 11/4/6 7/3/6
f 8/7/7 2/9/7 9/8/7
f 11/4/8 10/6/8 7/3/8
f 9/8/9 12/11/9 10/6/9
f 10/6/10 12/11/10 7/3/10
f 2/9/11 12/11/11 9/8/11
f 1/12/12 12/11/12 2/9/12
f 7/3/13 12/11/13 1/12/13
f 1/12/1 2/9/1 7/3/1
f 2/9/1 3/10/1 7/3/1
f 3/10/1 4/5/1 7/3/1
f 4/5/1 5/1/1 7/3/1
f 5/1/2 10/6/2 11/4/2
f 4/5/3 9/8/3 10/6/3
f 4/5/4 3/10/4 8/7/4
